HIERARCHY
ROOT Hips
{
 OFFSET 0.000000 0.000000 0.000000
 CHANNELS 6 Xposition Yposition Zposition Yrotation Xrotation Zrotation
 JOINT Chest
 {
  OFFSET 0.000000 9.585900 0.002600
  CHANNELS 3 Yrotation Xrotation Zrotation
  JOINT Chest2
  {
   OFFSET 0.000000 9.601200 -0.005300
   CHANNELS 3 Yrotation Xrotation Zrotation
   JOINT Chest3
   {
    OFFSET 0.000000 9.561800 0.000000
    CHANNELS 3 Yrotation Xrotation Zrotation
    JOINT Chest4
    {
     OFFSET 0.000000 9.552100 0.000000
     CHANNELS 3 Yrotation Xrotation Zrotation
     JOINT Neck
     {
      OFFSET 0.000000 14.453000 0.000000
      CHANNELS 3 Yrotation Xrotation Zrotation
      JOINT Head
      {
       OFFSET 0.000000 8.936500 -0.011300
       CHANNELS 3 Yrotation Xrotation Zrotation
       End Site
       {
        OFFSET 0.000000 17.073600 -0.006000
       }
      }
     }
     JOINT RightCollar
     {
      OFFSET -2.921100 9.558500 0.000000
      CHANNELS 3 Yrotation Xrotation Zrotation
      JOINT RightShoulder
      {
       OFFSET -13.519700 0.000000 0.000000
       CHANNELS 3 Yrotation Xrotation Zrotation
       JOINT RightElbow
       {
        OFFSET 0.000000 -29.696600 0.000000
        CHANNELS 3 Yrotation Xrotation Zrotation
        JOINT RightWrist
        {
         OFFSET 0.000000 -24.004700 0.000000
         CHANNELS 3 Yrotation Xrotation Zrotation
         End Site
         {
          OFFSET 0.000000 -17.728500 0.000000
         }
        }
       }
      }
     }
     JOINT LeftCollar
     {
      OFFSET 2.921100 9.558500 0.000000
      CHANNELS 3 Yrotation Xrotation Zrotation
      JOINT LeftShoulder
      {
       OFFSET 13.519700 0.000000 0.000000
       CHANNELS 3 Yrotation Xrotation Zrotation
       JOINT LeftElbow
       {
        OFFSET 0.000000 -29.696600 0.000000
        CHANNELS 3 Yrotation Xrotation Zrotation
        JOINT LeftWrist
        {
         OFFSET 0.000000 -24.004700 0.000000
         CHANNELS 3 Yrotation Xrotation Zrotation
         End Site
         {
          OFFSET 0.000000 -17.728500 0.000000
         }
        }
       }
      }
     }
    }
   }
  }
 }
 JOINT RightHip
 {
  OFFSET -7.771700 -0.012900 -0.001300
  CHANNELS 3 Yrotation Xrotation Zrotation
  JOINT RightKnee
  {
   OFFSET 0.000000 -40.869800 0.001200
   CHANNELS 3 Yrotation Xrotation Zrotation
   JOINT RightAnkle
   {
    OFFSET 0.000000 -39.717900 0.002100
    CHANNELS 3 Yrotation Xrotation Zrotation
    JOINT RightToe
    {
     OFFSET 0.000000 -4.965400 11.033500
     CHANNELS 3 Yrotation Xrotation Zrotation
     End Site
     {
      OFFSET 0.000000 -1.423100 5.872300
     }
    }
   }
  }
 }
 JOINT LeftHip
 {
  OFFSET 7.771700 -0.012900 -0.001300
  CHANNELS 3 Yrotation Xrotation Zrotation
  JOINT LeftKnee
  {
   OFFSET 0.000000 -40.869800 0.001200
   CHANNELS 3 Yrotation Xrotation Zrotation
   JOINT LeftAnkle
   {
    OFFSET 0.000000 -39.717900 0.002100
    CHANNELS 3 Yrotation Xrotation Zrotation
    JOINT LeftToe
    {
     OFFSET 0.000000 -4.965400 11.033500
     CHANNELS 3 Yrotation Xrotation Zrotation
     End Site
     {
      OFFSET 0.000000 -1.423100 5.872300
     }
    }
   }
  }
 }
}
MOTION
Frames: 12
Frame Time: 0.008333
-31.375230 48.300918 29.122497 176.279055 -33.161008 -1.245580 -0.738488 14.284477 2.121475 -0.581252 8.191899 1.537866 -0.714020 10.231905 1.915689 -0.562087 8.202542 1.532409 0.340752 20.326376 -3.287311 1.590789 2.030296 -6.082517 7.915852 1.868540 -3.510966 3.855432 -16.601814 -10.698030 58.171238 -59.081043 -42.528223 20.257032 17.461296 -23.188936 -4.716645 -3.017485 -4.546968 2.375388 -19.121540 -3.462436 -77.000589 -34.995558 50.173789 -15.638572 19.248307 25.109993 25.129940 -47.800495 -27.149487 -106.504770 67.238018 -98.168892 -0.495271 -3.096501 4.345647 0.076997 -0.750050 0.011220 -9.370318 -50.682247 13.583490 107.764476 78.885703 105.060579 -4.104746 -9.670715 -4.446534 0.089894 0.359244 0.128746
-31.382141 48.318995 29.108698 176.316834 -33.143581 -1.216537 -0.729101 14.315162 2.083211 -0.598920 8.164565 1.539305 -0.686486 10.239337 1.915746 -0.538735 8.209359 1.532561 0.374847 20.345864 -3.256072 1.642729 2.066989 -6.035148 7.903830 1.832173 -3.530991 3.714947 -16.499609 -10.778185 58.004645 -59.296376 -42.276056 20.129526 17.402129 -23.473806 -4.759798 -3.070479 -4.594548 2.294577 -19.214261 -3.341933 -76.870451 -35.043706 50.033642 -15.476758 19.075113 25.379864 25.128612 -47.802903 -27.198576 -106.546841 67.226538 -98.265545 -0.471894 -3.106796 4.399195 0.047364 -0.767966 0.002270 -9.284774 -50.705871 13.489014 107.743615 78.871179 105.041290 -4.131352 -9.690082 -4.421669 0.088195 0.367305 0.122850
-31.386149 48.329901 29.104851 176.350519 -33.061501 -1.207059 -0.718597 14.283063 2.067608 -0.573377 8.170595 1.541790 -0.717526 10.201668 1.921379 -0.499230 8.224053 1.529635 0.409327 20.364109 -3.226408 1.695825 2.101562 -5.990665 7.894292 1.801140 -3.545294 3.573230 -16.392938 -10.857507 57.819391 -59.535692 -42.001347 19.997215 17.326426 -23.784574 -4.795188 -3.116747 -4.648508 2.225035 -19.257562 -3.235921 -76.760799 -35.134818 49.946077 -15.340960 18.872933 25.654298 25.156682 -47.867719 -27.276780 -106.557167 67.239865 -98.305324 -0.467505 -3.102479 4.433310 0.023447 -0.779613 -0.004224 -9.240066 -50.791572 13.443566 107.713934 78.876352 105.027943 -4.154956 -9.728855 -4.420674 0.113079 0.398907 0.125424
-31.385398 48.341789 29.098851 176.361771 -33.003135 -1.215281 -0.695873 14.263019 2.078568 -0.540007 8.188169 1.545268 -0.711648 10.183936 1.927564 -0.526277 8.198880 1.536789 0.471002 20.400112 -3.209242 1.749026 2.138231 -5.950317 7.888900 1.786985 -3.549938 3.465457 -16.278718 -10.944426 57.628396 -59.789705 -41.722166 19.877104 17.236586 -24.097216 -4.794698 -3.138943 -4.717235 2.185280 -19.369439 -3.089537 -76.588204 -35.298444 49.750996 -15.227184 18.638620 25.938296 25.136343 -47.936464 -27.259547 -106.532442 67.245260 -98.335803 -0.488833 -3.094090 4.464839 0.018092 -0.792433 -0.004348 -9.131724 -50.840494 13.412507 107.613570 78.921339 104.983791 -4.227085 -9.798923 -4.426312 0.188059 0.453376 0.144907
-31.388563 48.353735 29.091483 176.397140 -32.958844 -1.216958 -0.720469 14.231947 2.063182 -0.504828 8.219545 1.546131 -0.652494 10.203071 1.929610 -0.586690 8.147342 1.554029 0.525957 20.436546 -3.193042 1.799798 2.176863 -5.915012 7.881637 1.773621 -3.551346 3.355723 -16.162415 -11.017108 57.463759 -60.038486 -41.471819 19.778410 17.135030 -24.394351 -4.795110 -3.154836 -4.787257 2.178223 -19.468523 -2.945652 -76.447642 -35.473612 49.563161 -15.081302 18.366466 26.241592 25.123253 -47.993791 -27.230530 -106.511056 67.213561 -98.372382 -0.589796 -3.009700 4.445247 0.090930 -0.871674 0.051305 -9.134635 -50.885835 13.393810 107.645924 78.925685 105.007888 -4.246856 -9.863776 -4.418106 0.204374 0.505344 0.143767
-31.393225 48.363248 29.087112 176.412641 -32.901387 -1.206213 -0.700403 14.224325 2.053157 -0.500040 8.212151 1.544553 -0.676245 10.167352 1.938339 -0.539064 8.168090 1.548299 0.546957 20.458983 -3.173468 1.846496 2.215686 -5.883841 7.871362 1.741847 -3.546000 3.216806 -16.039789 -11.067639 57.355439 -60.262890 -41.281444 19.699938 17.024890 -24.669313 -4.839008 -3.183181 -4.808980 2.217609 -19.525866 -2.862499 -76.326023 -35.672095 49.409207 -14.931923 18.065939 26.556595 25.155589 -48.041134 -27.279922 -106.514640 67.235386 -98.409130 -0.590395 -2.998350 4.466333 0.058162 -0.884551 0.053540 -9.116343 -50.941475 13.377263 107.654757 78.954770 105.020032 -4.271248 -9.888012 -4.420842 0.230477 0.520300 0.149586
-31.394946 48.370106 29.086806 176.450870 -32.826174 -1.235066 -0.662830 14.243521 2.064497 -0.523600 8.156437 1.553732 -0.663863 10.164326 1.945354 -0.485302 8.190939 1.535619 0.503121 20.421172 -3.131010 1.921192 2.279978 -5.868864 7.826347 1.664658 -3.515727 3.076849 -15.904022 -11.098908 57.315511 -60.457874 -41.166116 19.632324 16.909821 -24.920305 -4.919325 -3.239432 -4.804057 2.281619 -19.561819 -2.787335 -76.211240 -35.900131 49.256377 -14.783055 17.743719 26.884745 25.164434 -48.122447 -27.285267 -106.517485 67.208360 -98.426839 -0.648274 -2.981837 4.434941 0.098737 -0.895016 0.093225 -9.219871 -51.004308 13.436827 107.682883 79.022235 105.022372 -4.211763 -9.900035 -4.428868 0.232279 0.541877 0.144773
-31.397862 48.376029 29.087754 176.486162 -32.752183 -1.265614 -0.658899 14.211334 2.074118 -0.518108 8.149392 1.555778 -0.648508 10.164369 1.951113 -0.488014 8.174766 1.536250 0.507867 20.426192 -3.109533 1.990042 2.342399 -5.856581 7.831226 1.612567 -3.485531 2.948167 -15.744173 -11.118614 57.326230 -60.624480 -41.114808 19.572058 16.790236 -25.142394 -4.938019 -3.261704 -4.856971 2.349568 -19.565993 -2.680828 -76.101478 -36.148426 49.103886 -14.630075 17.409386 27.226432 25.181955 -48.203947 -27.294394 -106.526477 67.182324 -98.445316 -0.708714 -2.957479 4.406419 0.141256 -0.909858 0.123962 -9.322700 -51.074014 13.487390 107.692617 79.046693 105.018077 -4.180188 -9.901901 -4.438923 0.231830 0.552289 0.136299
-31.409457 48.380707 29.089958 176.512575 -32.675494 -1.251221 -0.660100 14.176523 2.041292 -0.515133 8.140024 1.557283 -0.610420 10.177077 1.940001 -0.515182 8.140047 1.557262 0.545513 20.457278 -3.094023 2.029126 2.380433 -5.833395 7.871756 1.514305 -3.435774 2.806100 -15.526968 -11.130802 57.357212 -60.763441 -41.103683 19.523566 16.670898 -25.330975 -4.966261 -3.294037 -4.967287 2.425589 -19.533008 -2.518505 -75.986836 -36.404209 48.951063 -14.467689 17.078585 27.580847 25.262650 -48.266062 -27.371612 -106.501138 67.193790 -98.481113 -0.706863 -2.905239 4.493304 0.087249 -0.936226 0.094420 -9.351516 -51.155502 13.464252 107.674594 79.070314 105.000190 -4.185073 -9.889634 -4.466059 0.259597 0.549516 0.150114
-31.416937 48.384987 29.093694 176.544775 -32.599453 -1.276601 -0.672197 14.122895 2.048094 -0.503789 8.151755 1.551717 -0.609774 10.162517 1.941501 -0.520693 8.125473 1.566941 0.587056 20.488626 -3.089887 2.066834 2.414187 -5.812469 7.899676 1.437595 -3.398471 2.695030 -15.326600 -11.115286 57.389122 -60.876819 -41.113892 19.489792 16.566751 -25.487549 -4.990691 -3.320183 -5.009239 2.538167 -19.475541 -2.444697 -75.859266 -36.654701 48.798922 -14.295125 16.762866 27.944888 25.315142 -48.337947 -27.408818 -106.496148 67.171321 -98.492264 -0.720460 -2.865204 4.498117 0.081818 -0.955399 0.126237 -9.431705 -51.231912 13.497288 107.648896 79.085880 104.981999 -4.200913 -9.884307 -4.491640 0.295173 0.554767 0.157523
-31.426344 48.388786 29.098758 176.576120 -32.520673 -1.301394 -0.669233 14.101230 2.047609 -0.512507 8.119576 1.559767 -0.610768 10.149980 1.942288 -0.520137 8.118119 1.571432 0.620794 20.515105 -3.086319 2.103404 2.434523 -5.791738 7.918795 1.372225 -3.368644 2.593471 -15.146629 -11.065335 57.413536 -60.963277 -41.133936 19.466142 16.484409 -25.618651 -5.014195 -3.353647 -5.042217 2.645811 -19.392088 -2.383171 -75.719829 -36.887898 48.653660 -14.114578 16.468571 28.307830 25.409783 -48.397620 -27.469432 -106.500304 67.133689 -98.481496 -0.750854 -2.827647 4.493171 0.097985 -0.966083 0.147254 -9.530794 -51.315568 13.518715 107.608508 79.068599 104.947490 -4.187847 -9.865204 -4.513894 0.297925 0.551478 0.148902
-31.445266 48.393155 29.102960 176.591750 -32.448792 -1.270072 -0.674938 14.083698 1.995516 -0.522060 8.072683 1.574019 -0.611365 10.145466 1.942429 -0.515855 8.114891 1.559163 0.649386 20.533916 -3.073559 2.138505 2.441157 -5.771747 7.926654 1.340688 -3.342443 2.500547 -15.009006 -10.976125 57.427135 -61.017978 -41.158916 19.448648 16.417484 -25.728807 -5.030959 -3.388618 -5.059888 2.739163 -19.288775 -2.332206 -75.573246 -37.101094 48.517552 -13.931113 16.206581 28.656998 25.530477 -48.427829 -27.585540 -106.465360 67.113283 -98.444908 -0.772666 -2.814781 4.491547 0.110501 -0.951122 0.137719 -9.513012 -51.411151 13.373972 107.481547 78.980867 104.849445 -4.076053 -9.837174 -4.509390 0.184639 0.544016 0.100915
